<svg width="45" height="45" viewBox="0 0 45 45" fill="none" xmlns="http://www.w3.org/2000/svg">
<path d="M22.875 11.0195C16.625 11.0195 11.6445 16.0977 11.6445 22.25C11.6445 28.5 16.625 33.4805 22.875 33.4805C29.0273 33.4805 34.1055 28.5 34.1055 22.25C34.1055 16.0977 29.0273 11.0195 22.875 11.0195ZM22.875 29.5742C18.8711 29.5742 15.5508 26.3516 15.5508 22.25C15.5508 18.2461 18.7734 15.0234 22.875 15.0234C26.8789 15.0234 30.1016 18.2461 30.1016 22.25C30.1016 26.3516 26.8789 29.5742 22.875 29.5742ZM37.1328 10.6289C37.1328 9.16406 35.9609 7.99219 34.4961 7.99219C33.0312 7.99219 31.8594 9.16406 31.8594 10.6289C31.8594 12.0938 33.0312 13.2656 34.4961 13.2656C35.9609 13.2656 37.1328 12.0938 37.1328 10.6289ZM44.5547 13.2656C44.3594 9.75 43.5781 6.625 41.0391 4.08594C38.5 1.54688 35.375 0.765625 31.8594 0.570312C28.2461 0.375 17.4062 0.375 13.793 0.570312C10.2773 0.765625 7.25 1.54688 4.61328 4.08594C2.07422 6.625 1.29297 9.75 1.09766 13.2656C0.902344 16.8789 0.902344 27.7188 1.09766 31.332C1.29297 34.8477 2.07422 37.875 4.61328 40.5117C7.25 43.0508 10.2773 43.832 13.793 44.0273C17.4062 44.2227 28.2461 44.2227 31.8594 44.0273C35.375 43.832 38.5 43.0508 41.0391 40.5117C43.5781 37.875 44.3594 34.8477 44.5547 31.332C44.75 27.7188 44.75 16.8789 44.5547 13.2656ZM39.8672 35.1406C39.1836 37.0938 37.6211 38.5586 35.7656 39.3398C32.8359 40.5117 26 40.2188 22.875 40.2188C19.6523 40.2188 12.8164 40.5117 9.98438 39.3398C8.03125 38.5586 6.56641 37.0938 5.78516 35.1406C4.61328 32.3086 4.90625 25.4727 4.90625 22.25C4.90625 19.125 4.61328 12.2891 5.78516 9.35938C6.56641 7.50391 8.03125 6.03906 9.98438 5.25781C12.8164 4.08594 19.6523 4.37891 22.875 4.37891C26 4.37891 32.8359 4.08594 35.7656 5.25781C37.6211 5.94141 39.0859 7.50391 39.8672 9.35938C41.0391 12.2891 40.7461 19.125 40.7461 22.25C40.7461 25.4727 41.0391 32.3086 39.8672 35.1406Z" fill="white"/>
</svg>
