<svg width="20" height="12" viewBox="0 0 20 12" fill="none" xmlns="http://www.w3.org/2000/svg">
<path d="M5.25 7.5C6.75 7.5 8 6.28125 8 4.75C8 3.25 6.75 2 5.25 2C3.71875 2 2.5 3.25 2.5 4.75C2.5 6.28125 3.71875 7.5 5.25 7.5ZM5.25 3.5C5.9375 3.5 6.5 4.0625 6.5 4.75C6.5 5.46875 5.9375 6 5.25 6C4.53125 6 4 5.46875 4 4.75C4 4.0625 4.53125 3.5 5.25 3.5ZM16.5 2H9.5C9.21875 2 9 2.25 9 2.5V8.5H1.5V0.5C1.5 0.25 1.25 0 1 0H0.5C0.21875 0 0 0.25 0 0.5V11.5C0 11.7812 0.21875 12 0.5 12H1C1.25 12 1.5 11.7812 1.5 11.5V10H18.5V11.5C18.5 11.7812 18.7188 12 19 12H19.5C19.75 12 20 11.7812 20 11.5V5.5C20 3.59375 18.4062 2 16.5 2ZM18.5 8.5H10.5V3.5H16.5C17.5938 3.5 18.5 4.40625 18.5 5.5V8.5Z" fill="#323232"/>
</svg>
