<svg width="16" height="16" viewBox="0 0 16 16" fill="none" xmlns="http://www.w3.org/2000/svg">
<path d="M9.5 4.40625L3.8125 7C3.1875 7.3125 2.875 7.9375 3.03125 8.59375C3.15625 9.25 3.71875 9.6875 4.40625 9.6875H6.0625V11.3438C6.0625 12 6.5 12.5625 7.15625 12.7188C7.25 12.7188 7.375 12.75 7.46875 12.75C8 12.75 8.5 12.4375 8.75 11.9062L11.375 6.25V6.21875C11.5938 5.71875 11.4688 5.125 11.0625 4.71875C10.6562 4.28125 10.0625 4.15625 9.5 4.40625ZM7.5625 10.9375V8.21875H4.78125L9.90625 5.84375L7.5625 10.9375ZM7.75 0.25C3.46875 0.25 0 3.75 0 8C0 12.2812 3.46875 15.75 7.75 15.75C12 15.75 15.5 12.2812 15.5 8C15.5 3.75 12 0.25 7.75 0.25ZM7.75 14.25C4.28125 14.25 1.5 11.4688 1.5 8C1.5 4.5625 4.28125 1.75 7.75 1.75C11.1875 1.75 14 4.5625 14 8C14 11.4688 11.1875 14.25 7.75 14.25Z" fill="#323232"/>
</svg>
