<svg width="18" height="16" viewBox="0 0 18 16" fill="none" xmlns="http://www.w3.org/2000/svg">
<path d="M14.2812 5.53125H11.125L10.2812 4H10.625C10.8125 4 11 3.84375 11 3.625V2.375C11 2.1875 10.8125 2 10.625 2H9.1875L8.375 0.5625V0.53125C8.15625 0.21875 7.8125 0 7.4375 0H5.8125C5.09375 0 4.59375 0.65625 4.75 1.34375L5.53125 5.59375C5.1875 5.625 4.6875 5.65625 4.34375 5.71875L3.5 4.375C3.28125 4.0625 2.9375 3.875 2.5625 3.875H1.375C0.65625 3.875 0.15625 4.5 0.28125 5.15625L0.65625 7.03125C0.21875 7.34375 0 7.65625 0 8.03125C0 8.375 0.21875 8.6875 0.65625 9L0.28125 10.875C0.15625 11.5312 0.6875 12.1562 1.375 12.1562H2.5625C2.9375 12.1562 3.28125 11.9688 3.5 11.6562L4.34375 10.3125C4.6875 10.375 5.1875 10.4062 5.53125 10.4375L4.75 14.6875C4.59375 15.375 5.09375 16 5.8125 16H7.4375C7.8125 16 8.15625 15.8125 8.375 15.5V15.4688L9.1875 14H10.625C10.8125 14 11 13.8438 11 13.625V12.375C11 12.1875 10.8125 12 10.625 12H10.2812L11.125 10.5H14.2812C15.9375 10.5 18 9.59375 18 8C18 6.4375 15.9375 5.53125 14.2812 5.53125ZM14.2812 9H10.25L7.1875 14.5H6.28125L7.3125 9C5.65625 8.96875 5.34375 8.96875 3.625 8.6875L2.34375 10.6562H1.875L2.375 8L1.875 5.375H2.34375L3.625 7.34375C5.34375 7.0625 5.65625 7.0625 7.3125 7.03125L6.28125 1.5H7.1875L10.25 7.03125H14.2812C15.5 7.03125 16.5 7.5 16.5 8C16.5 8.5 15.5 9 14.2812 9Z" fill="#323232"/>
</svg>
