<svg width="32" height="29" viewBox="0 0 32 29" fill="none" xmlns="http://www.w3.org/2000/svg">
<path d="M21.6562 12.75H23.7891C24.1172 12.75 24.5 12.4219 24.5 12.0938V9.96094C24.5 9.63281 24.1172 9.25 23.7891 9.25H21.6562C21.3281 9.25 21 9.63281 21 9.96094V12.0938C21 12.4219 21.3281 12.75 21.6562 12.75ZM14.6562 7.5H16.7891C17.1172 7.5 17.5 7.17188 17.5 6.84375V4.71094C17.5 4.38281 17.1172 4 16.7891 4H14.6562C14.3281 4 14 4.38281 14 4.71094V6.84375C14 7.17188 14.3281 7.5 14.6562 7.5ZM21.6562 7.5H23.7891C24.1172 7.5 24.5 7.17188 24.5 6.84375V4.71094C24.5 4.38281 24.1172 4 23.7891 4H21.6562C21.3281 4 21 4.38281 21 4.71094V6.84375C21 7.17188 21.3281 7.5 21.6562 7.5ZM7.65625 7.5H9.78906C10.1172 7.5 10.5 7.17188 10.5 6.84375V4.71094C10.5 4.38281 10.1172 4 9.78906 4H7.65625C7.32812 4 7 4.38281 7 4.71094V6.84375C7 7.17188 7.32812 7.5 7.65625 7.5ZM14.6562 12.75H16.7891C17.1172 12.75 17.5 12.4219 17.5 12.0938V9.96094C17.5 9.63281 17.1172 9.25 16.7891 9.25H14.6562C14.3281 9.25 14 9.63281 14 9.96094V12.0938C14 12.4219 14.3281 12.75 14.6562 12.75ZM31.0625 2.25C31.2812 2.25 31.5 2.08594 31.5 1.8125V0.9375C31.5 0.71875 31.2812 0.5 31.0625 0.5H0.4375C0.164062 0.5 0 0.71875 0 0.9375V1.8125C0 2.08594 0.164062 2.25 0.4375 2.25H1.69531V26.75H0.4375C0.164062 26.75 0 26.9688 0 27.1875V28.0625C0 28.3359 0.164062 28.5 0.4375 28.5H31.0625C31.2812 28.5 31.5 28.3359 31.5 28.0625V27.1875C31.5 26.9688 31.2812 26.75 31.0625 26.75H29.75V2.25H31.0625ZM17.5 26.75H14V22.375C14 21.9375 14.3828 21.5 14.875 21.5H16.625C17.0625 21.5 17.5 21.9375 17.5 22.375V26.75ZM28 26.75H19.25V22.375C19.25 20.9531 18.0469 19.75 16.625 19.75H14.875C13.3984 19.75 12.25 20.9531 12.25 22.375V26.75H3.44531V2.25H28V26.75ZM7.65625 12.75H9.78906C10.1172 12.75 10.5 12.4219 10.5 12.0938V9.96094C10.5 9.63281 10.1172 9.25 9.78906 9.25H7.65625C7.32812 9.25 7 9.63281 7 9.96094V12.0938C7 12.4219 7.32812 12.75 7.65625 12.75ZM9.13281 21.3906L10.0078 21.5C10.2266 21.5547 10.4453 21.3906 10.5 21.1719C11.0469 18.8203 13.2344 17.125 15.75 17.125C18.2109 17.125 20.3984 18.8203 20.9453 21.1719C21 21.3906 21.2188 21.5547 21.4375 21.5L22.3125 21.3906C22.5859 21.3906 22.75 21.1172 22.6953 20.8984C22.0391 17.7266 19.0859 15.375 15.75 15.375C12.3594 15.375 9.40625 17.7266 8.75 20.8984C8.69531 21.1172 8.85938 21.3906 9.13281 21.3906Z" fill="#D92027"/>
</svg>
