<svg width="30" height="27" viewBox="0 0 30 27" fill="none" xmlns="http://www.w3.org/2000/svg">
<path d="M24.0757 10.4062H17.7281L15.7984 6.75H16.5601C16.8648 6.75 17.1695 6.49609 17.1695 6.14062V4.10938C17.1695 3.80469 16.8648 3.5 16.5601 3.5H14.021L12.4468 0.554688C12.3452 0.402344 12.1421 0.25 11.939 0.25H8.99368C8.58743 0.25 8.28274 0.65625 8.3843 1.01172L10.1109 10.457C8.43508 10.5078 6.91165 10.6602 5.54055 10.8633L3.5093 7.46094C3.40774 7.30859 3.20461 7.15625 3.00149 7.15625H0.817896C0.462427 7.15625 0.15774 7.51172 0.208521 7.91797L1.0718 12.1328C0.411646 12.4883 0.106958 12.8438 0.106958 13.25C0.106958 13.707 0.411646 14.0625 1.0718 14.418L0.208521 18.6328C0.15774 19.0391 0.462427 19.3438 0.817896 19.3438H3.00149C3.20461 19.3438 3.40774 19.2422 3.5093 19.0898L5.54055 15.6875C6.91165 15.8906 8.43508 16.043 10.1109 16.0938L8.3843 25.4883C8.28274 25.8945 8.58743 26.25 8.99368 26.25H11.939C12.1421 26.25 12.3452 26.1484 12.4468 25.9961L14.021 23H16.5601C16.8648 23 17.1695 22.7461 17.1695 22.3906V20.3594C17.1695 20.0547 16.8648 19.75 16.5601 19.75H15.7984L17.7281 16.0938H24.0757C26.9702 16.0938 29.357 14.8242 29.357 13.25C29.357 11.7266 26.9702 10.4062 24.0757 10.4062Z" fill="#FBFAF7"/>
</svg>
