<svg width="33" height="20" viewBox="0 0 33 20" fill="none" xmlns="http://www.w3.org/2000/svg">
<path d="M9.41946 10.25C11.6538 10.25 13.482 8.47266 13.482 6.1875C13.482 3.95312 11.6538 2.125 9.41946 2.125C7.1343 2.125 5.35696 3.95312 5.35696 6.1875C5.35696 8.47266 7.1343 10.25 9.41946 10.25ZM27.2945 3.75H15.9195C15.4624 3.75 15.107 4.15625 15.107 4.5625V11.875H3.73196V1.3125C3.73196 0.90625 3.32571 0.5 2.91946 0.5H1.29446C0.837427 0.5 0.481958 0.90625 0.481958 1.3125V19.1875C0.481958 19.6445 0.837427 20 1.29446 20H2.91946C3.32571 20 3.73196 19.6445 3.73196 19.1875V16.75H29.732V19.1875C29.732 19.6445 30.0874 20 30.5445 20H32.1695C32.5757 20 32.982 19.6445 32.982 19.1875V9.4375C32.982 6.33984 30.3921 3.75 27.2945 3.75Z" fill="#FBFAF7"/>
</svg>
