<svg width="24" height="27" viewBox="0 0 24 27" fill="none" xmlns="http://www.w3.org/2000/svg">
<path d="M0.966333 10C0.610865 10 0.356958 10.3047 0.356958 10.6094V23.8125C0.356958 25.1836 1.42336 26.25 2.79446 26.25H20.6695C21.9898 26.25 23.107 25.1836 23.107 23.8125V10.6094C23.107 10.3047 22.8023 10 22.4976 10H0.966333ZM23.107 7.76562V5.9375C23.107 4.61719 21.9898 3.5 20.6695 3.5H18.232V0.859375C18.232 0.554688 17.9273 0.25 17.6226 0.25H15.5913C15.2359 0.25 14.982 0.554688 14.982 0.859375V3.5H8.48196V0.859375C8.48196 0.554688 8.17727 0.25 7.87258 0.25H5.84133C5.48586 0.25 5.23196 0.554688 5.23196 0.859375V3.5H2.79446C1.42336 3.5 0.356958 4.61719 0.356958 5.9375V7.76562C0.356958 8.12109 0.610865 8.375 0.966333 8.375H22.4976C22.8023 8.375 23.107 8.12109 23.107 7.76562Z" fill="#FBFAF7"/>
</svg>
