<svg width="21" height="27" viewBox="0 0 21 27" fill="none" xmlns="http://www.w3.org/2000/svg">
<path d="M9.71633 25.7422C10.1734 26.4531 11.2398 26.4531 11.6968 25.7422C19.1109 15.0781 20.482 13.9609 20.482 10C20.482 4.61719 16.1148 0.25 10.732 0.25C5.29836 0.25 0.981958 4.61719 0.981958 10C0.981958 13.9609 2.30227 15.0781 9.71633 25.7422ZM10.732 14.0625C8.4468 14.0625 6.66946 12.2852 6.66946 10C6.66946 7.76562 8.4468 5.9375 10.732 5.9375C12.9663 5.9375 14.7945 7.76562 14.7945 10C14.7945 12.2852 12.9663 14.0625 10.732 14.0625Z" fill="#FBFAF7"/>
</svg>
